<mxfile host="app.diagrams.net" modified="2023-07-20T12:55:12.485Z" agent="Mozilla/5.0 (Macintosh; Intel Mac OS X 10_15_7) AppleWebKit/537.36 (KHTML, like Gecko) Chrome/114.0.0.0 Safari/537.36" version="21.3.7" etag="FO5unAQyRzVNyAIAthKe" type="github">
  <diagram name="Page-1" id="hR6VGbayzebApylClJV2">
    <mxGraphModel>
      <root>
        <mxCell id="0" />
        <mxCell id="1" parent="0" />
      </root>
    </mxGraphModel>
  </diagram>
</mxfile>
